<svg id="Capa_1" enable-background="new 0 0 512 512" height="512" viewBox="0 0 512 512" width="512" xmlns="http://www.w3.org/2000/svg"><g><path d="m256 207.387c35.076 0 63.613-28.537 63.613-63.613s-28.537-63.613-63.613-63.613-63.613 28.537-63.613 63.613 28.537 63.613 63.613 63.613zm0-112.226c26.805 0 48.613 21.808 48.613 48.613s-21.808 48.613-48.613 48.613-48.613-21.808-48.613-48.613 21.808-48.613 48.613-48.613z"/><path d="m322.4 226.82c-7.106-1.874-14.924-.97-21.447 2.48-14.032 7.421-29.157 11.184-44.953 11.184s-30.92-3.763-44.953-11.184c-6.523-3.449-14.341-4.353-21.447-2.479-31.397 8.276-53.326 36.757-53.326 69.26v96.194c0 21.816 17.749 39.565 39.564 39.565h160.322c21.816 0 39.564-17.749 39.564-39.565v-96.195c.002-32.503-21.927-60.984-53.324-69.26zm38.326 165.454c0 13.545-11.02 24.565-24.564 24.565h-160.323c-13.545 0-24.564-11.02-24.564-24.565v-96.194c0-25.698 17.333-48.214 42.149-54.756 1.198-.316 2.437-.471 3.679-.471 2.397 0 4.802.58 6.933 1.706 16.216 8.576 33.699 12.924 51.965 12.924s35.75-4.348 51.965-12.924c3.234-1.71 7.101-2.161 10.611-1.235 24.816 6.542 42.149 29.058 42.149 54.756z"/><path d="m408.307 239.452c26.236 0 47.581-21.345 47.581-47.581s-21.345-47.581-47.581-47.581-47.581 21.344-47.581 47.581 21.344 47.581 47.581 47.581zm0-80.162c17.965 0 32.581 14.615 32.581 32.581s-14.616 32.581-32.581 32.581-32.581-14.616-32.581-32.581 14.615-32.581 32.581-32.581z"/><path d="m454.287 257.947c-6.712-1.322-13.698-.703-20.199 1.79-10.562 4.05-21.771 5.571-33.039 4.426-4.125-.419-7.801 2.582-8.22 6.703s2.582 7.801 6.703 8.22c13.604 1.384 27.173-.453 39.927-5.343 3.863-1.481 7.989-1.854 11.931-1.078 26.428 5.203 45.61 28.536 45.61 55.48v40.081c0 9.125-7.423 16.548-16.548 16.548h-80.161c-4.142 0-7.5 3.358-7.5 7.5s3.358 7.5 7.5 7.5h80.161c17.396 0 31.548-14.153 31.548-31.548v-40.081c0-34.091-24.271-63.613-57.713-70.198z"/><path d="m103.693 239.452c26.236 0 47.581-21.345 47.581-47.581s-21.345-47.581-47.581-47.581-47.581 21.344-47.581 47.581 21.346 47.581 47.581 47.581zm0-80.162c17.965 0 32.581 14.615 32.581 32.581s-14.616 32.581-32.581 32.581-32.581-14.616-32.581-32.581 14.617-32.581 32.581-32.581z"/><path d="m60.611 272.664c3.94-.776 8.067-.403 11.931 1.078 12.753 4.89 26.322 6.727 39.927 5.343 4.121-.419 7.122-4.099 6.703-8.22s-4.106-7.126-8.22-6.703c-11.268 1.146-22.478-.376-33.039-4.425-6.501-2.493-13.486-3.112-20.199-1.79-33.443 6.585-57.714 36.107-57.714 70.198v40.081c0 17.396 14.152 31.548 31.548 31.548h80.161c4.142 0 7.5-3.358 7.5-7.5s-3.358-7.5-7.5-7.5h-80.161c-9.125 0-16.548-7.424-16.548-16.548v-40.081c0-26.944 19.182-50.277 45.611-55.481z"/></g></svg>