<svg id="Capa_1" enable-background="new 0 0 512 512" height="512" viewBox="0 0 512 512" width="512" xmlns="http://www.w3.org/2000/svg"><g><path d="m440.371 20.052h-368.742c-39.496 0-71.629 32.132-71.629 71.628v240.484c0 39.496 32.133 71.629 71.629 71.629h16.032c4.142 0 7.5-3.358 7.5-7.5s-3.358-7.5-7.5-7.5h-16.032c-31.225 0-56.629-25.404-56.629-56.629v-240.484c0-31.225 25.404-56.629 56.629-56.629h368.742c31.225.001 56.629 25.404 56.629 56.629v240.484c0 31.225-25.404 56.629-56.629 56.629h-78.216c-8.427 0-16.35 3.282-22.308 9.24l-75.428 75.427c-2.249 2.249-5.239 3.488-8.419 3.488s-6.17-1.239-8.419-3.488l-75.427-75.427c-5.958-5.958-13.881-9.24-22.308-9.24h-30.12c-4.142 0-7.5 3.358-7.5 7.5s3.358 7.5 7.5 7.5h30.12c4.42 0 8.576 1.721 11.702 4.847l75.427 75.427c5.082 5.082 11.839 7.881 19.026 7.881s13.944-2.799 19.026-7.881l75.427-75.427c3.125-3.125 7.281-4.847 11.702-4.847h78.216c39.496 0 71.629-32.133 71.629-71.629v-240.484c-.001-39.496-32.134-71.628-71.63-71.628z"/><path d="m201.032 123.206c18.83 0 36.813 8.158 49.339 22.382 1.424 1.617 3.475 2.543 5.629 2.543s4.205-.927 5.629-2.543c12.525-14.224 30.509-22.382 49.339-22.382 12.587 0 24.818 3.564 35.371 10.306 3.49 2.23 8.128 1.208 10.358-2.282s1.209-8.128-2.282-10.358c-12.969-8.287-27.993-12.667-43.447-12.667-20.446 0-40.071 7.818-54.968 21.683-14.896-13.865-34.521-21.683-54.968-21.683-44.548 0-80.791 36.243-80.791 80.791 0 36.483 22.458 74.23 66.748 112.194 32.313 27.696 64.13 44.861 65.469 45.578 2.212 1.185 4.871 1.185 7.083 0 1.339-.717 33.156-17.882 65.468-45.578 44.291-37.964 66.748-75.711 66.748-112.194 0-13.81-3.547-27.442-10.256-39.424-2.024-3.614-6.594-4.902-10.208-2.879-3.614 2.024-4.903 6.595-2.879 10.208 5.459 9.748 8.344 20.846 8.344 32.095 0 69.555-100.455 130.879-120.758 142.558-20.304-11.679-120.758-73.002-120.758-142.558 0-36.276 29.513-65.79 65.79-65.79z"/></g></svg>