<?xml version="1.0" standalone="no"?>
<!DOCTYPE svg PUBLIC "-//W3C//DTD SVG 20010904//EN"
 "http://www.w3.org/TR/2001/REC-SVG-20010904/DTD/svg10.dtd">
<svg version="1.0" xmlns="http://www.w3.org/2000/svg"
 width="1278.000000pt" height="1280.000000pt" viewBox="0 0 1278.000000 1280.000000"
 preserveAspectRatio="xMidYMid meet">
<g transform="translate(0.000000,1280.000000) scale(0.100000,-0.100000)"
fill="#000000" stroke="none">
<path d="M7726 12780 c-161 -37 -268 -94 -364 -193 -138 -144 -202 -370 -202
-711 0 -75 -10 -207 -26 -328 -100 -798 -249 -1275 -492 -1580 -88 -109 -186
-203 -407 -388 -110 -92 -254 -223 -320 -292 -210 -218 -293 -354 -478 -788
-354 -831 -563 -1249 -812 -1626 -166 -251 -318 -423 -449 -510 l-59 -39 -161
-6 c-221 -9 -290 -35 -399 -145 -56 -57 -103 -146 -117 -223 -6 -35 -10 -813
-10 -2230 0 -1547 -3 -2231 -11 -2367 -35 -561 100 -731 636 -798 183 -23
1298 -228 1710 -314 213 -45 393 -76 535 -91 205 -23 1568 -103 2065 -121 165
-6 372 -15 460 -20 206 -13 495 -13 643 0 65 5 182 14 262 20 182 14 431 52
586 90 403 98 698 254 1005 533 259 234 409 444 475 664 24 81 27 109 34 338
10 335 -2 309 275 595 215 221 303 345 359 506 38 108 49 192 43 332 -6 173
-27 241 -197 646 -25 60 -39 107 -36 120 3 11 60 82 127 156 230 256 309 381
354 565 30 121 31 150 5 258 -39 167 -83 261 -259 546 -55 91 -101 175 -101
187 0 12 17 44 37 71 209 271 259 356 300 511 78 297 -5 619 -257 1001 -220
332 -439 544 -685 666 -132 65 -201 88 -360 120 -394 80 -998 112 -1860 101
-291 -4 -597 -11 -680 -15 -82 -4 -156 -5 -162 -3 -18 6 -16 28 12 121 43 144
113 306 282 656 245 503 323 684 413 955 129 385 178 706 167 1090 -15 530
-176 981 -482 1349 -236 284 -610 498 -995 570 -63 12 -137 26 -163 31 -68 14
-149 11 -241 -10z m343 -801 c89 -25 220 -84 288 -130 69 -47 188 -164 238
-234 87 -123 165 -309 203 -486 98 -455 24 -921 -243 -1524 -32 -71 -125 -269
-207 -440 -240 -496 -307 -657 -359 -859 -54 -209 -73 -483 -46 -641 32 -178
127 -313 271 -381 113 -54 179 -60 495 -45 391 19 1626 26 1907 12 513 -27
763 -73 901 -167 134 -92 361 -392 442 -583 29 -68 38 -149 21 -182 -8 -13
-60 -86 -118 -162 -124 -164 -183 -264 -219 -372 -23 -70 -27 -96 -27 -210 0
-121 2 -137 32 -222 40 -118 74 -183 187 -368 129 -210 145 -239 145 -261 0
-22 -43 -75 -177 -222 -224 -245 -306 -417 -306 -642 0 -162 29 -265 167 -591
36 -86 69 -177 72 -202 6 -41 3 -52 -27 -99 -18 -29 -109 -130 -200 -224 -234
-240 -324 -368 -385 -546 -45 -134 -56 -212 -63 -454 l-6 -231 -28 -41 c-87
-125 -265 -297 -405 -391 -36 -24 -109 -66 -161 -92 -461 -232 -1046 -254
-3251 -124 -900 53 -918 55 -1295 135 -334 70 -1451 279 -1618 302 -45 6 -85
14 -90 18 -11 10 -9 4212 3 4224 5 5 47 20 92 33 312 91 571 310 886 751 298
418 543 893 956 1856 128 298 160 362 218 441 80 108 160 186 368 358 226 188
420 376 522 507 320 414 503 922 617 1715 44 308 61 468 61 576 0 53 3 124 6
158 6 57 8 61 32 61 14 0 60 -9 101 -21z"/>
<path d="M825 6580 c-318 -43 -585 -239 -725 -531 -49 -104 -77 -210 -90 -348
-6 -67 -10 -912 -10 -2326 0 -2201 0 -2221 21 -2329 41 -217 122 -379 258
-517 134 -135 296 -223 479 -261 88 -18 139 -19 875 -16 779 3 782 4 862 26
184 52 372 175 485 318 75 95 152 250 182 369 l23 90 0 2365 0 2365 -26 95
c-53 189 -129 319 -262 447 -92 88 -187 150 -301 194 -165 64 -139 62 -961 65
-412 1 -777 -2 -810 -6z m1505 -786 c64 -37 76 -68 85 -206 4 -67 4 -1098 0
-2291 l-8 -2168 -21 -31 c-12 -17 -34 -41 -49 -52 -28 -21 -37 -21 -660 -24
-348 -2 -670 0 -716 3 -77 6 -86 10 -122 42 -23 21 -43 50 -49 73 -7 25 -9
787 -8 2296 3 2239 3 2259 23 2293 34 58 67 75 158 82 45 3 363 6 707 5 611
-1 626 -1 660 -22z"/>
</g>
</svg>
