<svg id="Capa_2" data-name="Capa 2" xmlns="http://www.w3.org/2000/svg" viewBox="0 0 437.26 631"><defs><style>.cls-1,.cls-2{fill:#ffa70d;}.cls-2{stroke:#000;stroke-miterlimit:10;stroke-width:3px;}</style></defs><title>vr</title><path class="cls-1" d="M879.26,814.21,744.91,260.8,854.07,317l49.87,365.71,31.73-288.95c35.94,12.39,88.05,30.68,95.26,34.1-33.72,131.81-98.3,379.46-104,401.27Z" transform="translate(-743.34 -200)"/><path d="M747.14,263.66l105.55,54.28L900.8,670.81,904.1,695l2.66-24.23,30.2-275c34.2,11.8,82.18,28.65,92.2,32.93C996,558.23,933.65,797.46,925.89,827.2L880.52,813,747.14,263.66m-2.46-4.47a1.35,1.35,0,0,0-1.3,1.67L878,815.39,928,831s69.21-265.31,104.65-403.85c0-1.61-98.26-35.44-98.26-35.44L903.78,670.4,855.45,316,745.3,259.34a1.38,1.38,0,0,0-.62-.15Z" transform="translate(-743.34 -200)"/><path class="cls-1" d="M745.61,257.82l82.55-56.07,97.86,52a1.8,1.8,0,0,1,1,1.43,1.78,1.78,0,0,1-.67,1.59l-71,57.45Z" transform="translate(-743.34 -200)"/><path d="M828.25,203.5l97.07,51.57a.3.3,0,0,1,.17.25.29.29,0,0,1-.12.28l-70.29,56.83L748.55,257.64l79.7-54.14m-.19-3.5-83.65,56.82a1.24,1.24,0,0,0,.13,2.13l110.91,57,71.81-58.06a3.32,3.32,0,0,0-.53-5.51L828.06,200Z" transform="translate(-743.34 -200)"/><path class="cls-1" d="M857.05,316.62l72.42-58.55a.16.16,0,0,1,.1,0s.17,0,.17.17l3.14,133.44L903.62,658.13Z" transform="translate(-743.34 -200)"/><path d="M928.31,260.94l3.07,130.64L903.46,645.85,858.65,317.26l69.66-56.32m1.26-4.41a1.63,1.63,0,0,0-1,.38L855.45,316,903.78,670.4l30.61-278.69-3.15-133.55a1.66,1.66,0,0,0-1.67-1.63Z" transform="translate(-743.34 -200)"/><path class="cls-1" d="M937.64,391.29l146.65-100.92c39.26,22.06,64.52,34.78,73.6,39.24a1.66,1.66,0,0,1,.28,2.81c-36,27.52-117.65,87.14-125.75,93.05Z" transform="translate(-743.34 -200)"/><path d="M1084.37,292.13c38.83,21.81,63.83,34.39,72.86,38.83a.13.13,0,0,1,.09.12.14.14,0,0,1-.06.15c-35.16,26.91-114,84.5-125.09,92.55L940.9,390.87l143.47-98.74m-.16-3.53L935.6,390.87a.76.76,0,0,0,.18,1.34l96.87,34.94s88.31-64.36,126.43-93.54a3.16,3.16,0,0,0-.52-5.34c-9.78-4.81-35-17.55-74.35-39.67Z" transform="translate(-743.34 -200)"/><path class="cls-1" d="M1034,427l127.91-94.75a.41.41,0,0,1,.64.22,73.25,73.25,0,0,0,2.86,7.27c9.24,21.65,33.79,79.16-20.15,163.91-8.16,12.83-16.7,20-24.23,26.38-5.15,4.34-10,8.43-13.7,13.59a7.83,7.83,0,0,0-1.48,4.87c.49,11.34,9.42,51,33,125.61-4.77,4.94-29.67,23.89-41.1,32.45l-46-124.58-1.21,4.61C1050.18,588,1014,726,1002.69,763.16l-72,63.48Zm102-40.11c-1.37,1.29-22.73,15.54-36.77,24.82l-.47.31-29.13,108.19,3.21-2c1.55-.95,38.15-23.54,52.49-46.49l.63-1c9.91-15.82,23.48-37.48,12.56-83.13l-.63-2.61Z" transform="translate(-743.34 -200)"/><path d="M1161.56,334.39c.59,1.64,1.43,3.62,2.44,6,4.55,10.67,13,30.53,13.57,57.82.65,33.41-10.65,68.64-33.6,104.7-8,12.63-16.49,19.75-23.94,26-5.22,4.4-10.15,8.56-14,13.87a9.37,9.37,0,0,0-1.76,5.8c.51,11.94,9.4,51.07,32.79,125.13-5.17,4.92-24.74,20-38.69,30.47L1054.81,586l-3.29-8.94-2.42,9.22c-.37,1.39-36.31,138.3-47.72,176.07l-68,60,101.94-394.35,126.27-93.54m-26.64,51.45c-1.87,1.59-23.39,15.94-36.57,24.66l-.95.62-.3,1.1-28,104-1.95,7.27,6.42-3.93c1.56-1,38.45-23.73,53-47l.64-1c10-16,23.8-38,12.74-84.28l-1.25-5.21-3.75,3.75m27.2-55.13a1.9,1.9,0,0,0-1.14.38l-128.33,95.06L928,831l76-67c11.28-37,48-177,48-177l45,122s39.5-29.5,43.5-34.5c-25-79-32.74-115.85-33.18-126a6.29,6.29,0,0,1,1.2-3.93c8.78-12.26,24-18,38-40,61.8-97.11,21.52-158.37,17.46-172.41a1.91,1.91,0,0,0-1.84-1.38ZM1072,517l28-104s35.39-23.39,37-25c11,46-3,67-13,83-14.32,22.91-52,46-52,46Z" transform="translate(-743.34 -200)"/><polygon class="cls-1" points="385.92 249.69 385.98 249.7 385.92 249.69 385.92 249.69"/><polygon points="385.92 249.69 385.98 249.7 385.92 249.69 385.92 249.69"/><polygon class="cls-1" points="313.18 483.92 299.21 427.02 308.86 391.56 350.83 505.63 313.18 483.92"/><path d="M1052.41,596.48l38.92,105.79-33.51-19.33L1044.1,627l8.31-30.56m-.42-9.85L1041,627l14.21,57.9L1097,709l-45-122.37Z" transform="translate(-743.34 -200)"/><path class="cls-2" d="M1085.5,462.5s13-4,13-50c-.36-.21,39-32,39-32s35,77-67,138Z" transform="translate(-743.34 -200)"/></svg>